<svg width="25" height="24" viewBox="0 0 25 24" fill="none" xmlns="http://www.w3.org/2000/svg">
    <path d="M17.4531 2.88C17.337 2.76359 17.1991 2.67124 17.0472 2.60822C16.8953 2.5452 16.7325 2.51277 16.5681 2.51277C16.4037 2.51277 16.2409 2.5452 16.089 2.60822C15.9372 2.67124 15.7992 2.76359 15.6831 2.88L7.27313 11.29C7.18042 11.3825 7.10688 11.4924 7.05669 11.6134C7.00651 11.7343 6.98068 11.864 6.98068 11.995C6.98068 12.126 7.00651 12.2557 7.05669 12.3766C7.10688 12.4976 7.18042 12.6075 7.27313 12.7L15.6831 21.11C16.1731 21.6 16.9631 21.6 17.4531 21.11C17.9431 20.62 17.9431 19.83 17.4531 19.34L10.1131 12L17.4631 4.65C17.9431 4.16 17.9431 3.37 17.4531 2.88Z" fill="#F2F2F2"/>
</svg>
